<svg width="27" height="27" viewBox="0 0 27 27" fill="none" xmlns="http://www.w3.org/2000/svg">
<path d="M27 13.5C27 20.9558 20.9558 27 13.5 27C6.04416 27 0 20.9558 0 13.5C0 6.04416 6.04416 0 13.5 0C20.9558 0 27 6.04416 27 13.5ZM1.62684 13.5C1.62684 20.0574 6.94263 25.3732 13.5 25.3732C20.0574 25.3732 25.3732 20.0574 25.3732 13.5C25.3732 6.94263 20.0574 1.62684 13.5 1.62684C6.94263 1.62684 1.62684 6.94263 1.62684 13.5Z" fill="white" fill-opacity="0.01"/>
<path d="M15.3512 0.12753C17.934 0.485083 20.358 1.58295 22.3303 3.28847C24.3026 4.99399 25.7388 7.23418 26.4653 9.73835C27.1919 12.2425 27.1777 14.9035 26.4245 17.3998C25.6712 19.8961 24.2112 22.1208 22.2208 23.8052C20.2305 25.4896 17.7949 26.5615 15.2084 26.8915C12.6219 27.2214 9.99525 26.7953 7.64573 25.6646C5.29622 24.5339 3.32442 22.747 1.9686 20.5197C0.612783 18.2925 -0.0690398 15.7203 0.00552051 13.114L1.63169 13.1605C1.56612 15.4528 2.16578 17.715 3.35821 19.6738C4.55065 21.6326 6.28483 23.2042 8.35121 24.1987C10.4176 25.1931 12.7278 25.5679 15.0025 25.2777C17.2773 24.9875 19.4194 24.0447 21.1699 22.5633C22.9205 21.0819 24.2045 19.1253 24.867 16.9298C25.5294 14.7344 25.5419 12.3941 24.9029 10.1917C24.2639 7.98925 23.0008 6.01902 21.2662 4.51903C19.5316 3.01903 17.3997 2.05347 15.1281 1.739L15.3512 0.12753Z" fill="#D9D9D9"/>
</svg>
